<?xml version="1.0" encoding="utf-8"?>
<!-- Generator: Adobe Illustrator 27.5.0, SVG Export Plug-In . SVG Version: 6.00 Build 0)  -->
<svg version="1.1" id="レイヤー_1" xmlns="http://www.w3.org/2000/svg" xmlns:xlink="http://www.w3.org/1999/xlink" x="0px"
	 y="0px" width="600px" height="520px" viewBox="0 0 600 520" xml:space="preserve">
<style type="text/css">
	.st0{fill:url(#SVGID_1_);}
	.st1{fill:url(#SVGID_00000121277011761458097380000002730079903032154761_);}
	.st2{fill:none;}
	.st3{fill:url(#SVGID_00000126314179769152560590000004548027852008843185_);}
	.st4{fill:#606060;}
	.st5{fill:url(#SVGID_00000161613266203346220640000005443461236413933501_);}
	.st6{display:none;}
	.st7{display:inline;}
	.st8{fill:url(#SVGID_00000116199529180662201150000008225347460909134220_);}
	.st9{fill:url(#SVGID_00000088816887896253112230000011013454821111934090_);}
	.st10{fill:#1A1A1A;}
	.st11{fill:#919191;}
	.st12{fill:#1D1D1B;}
	.st13{fill:#FFFFFF;}
</style>
<g>
	<linearGradient id="SVGID_1_" gradientUnits="userSpaceOnUse" x1="299.3342" y1="517.707" x2="299.3342" y2="431.8125">
		<stop  offset="0" style="stop-color:#BEBEBE"/>
		<stop  offset="0.2638" style="stop-color:#DCDCDC"/>
		<stop  offset="0.4233" style="stop-color:#DCDCDC"/>
		<stop  offset="0.7914" style="stop-color:#B3B3B3"/>
		<stop  offset="1" style="stop-color:#B8B8B8"/>
	</linearGradient>
	<path class="st0" d="M381.1,517.7c6.2,0,13.6-0.7,17.3-1.6c3.6-0.9,4.2-1.6,4.2-2.2c0-0.4-0.2-0.9-1-1.6
		c-0.7-0.7-18.2-16.7-18.2-16.7c-5.4-4.9-8.1-11.4-9.1-17.5c-1.1-6.1-4.7-46.3-4.7-46.3H229.1c0,0-3.7,40.1-4.7,46.3
		c-1.1,6.1-3.7,12.6-9.1,17.5c0,0-17.5,16-18.2,16.7c-0.7,0.7-1,1.3-1,1.6c0,0.6,0.5,1.3,4.2,2.2c3.6,0.9,11,1.6,17.3,1.6H381.1z"/>
	
		<linearGradient id="SVGID_00000114072405539143530080000010377757389899041189_" gradientUnits="userSpaceOnUse" x1="196.1011" y1="516.9629" x2="402.5674" y2="516.9629">
		<stop  offset="0" style="stop-color:#BEBEBE"/>
		<stop  offset="3.680980e-02" style="stop-color:#A8A8A8"/>
		<stop  offset="9.815951e-02" style="stop-color:#EAEAEA"/>
		<stop  offset="0.9018" style="stop-color:#EAEAEA"/>
		<stop  offset="0.9693" style="stop-color:#A8A8A8"/>
		<stop  offset="1" style="stop-color:#BEBEBE"/>
	</linearGradient>
	<path style="fill:url(#SVGID_00000114072405539143530080000010377757389899041189_);" d="M402.6,516.2c0,0.6-0.5,1.3-4.2,2.2
		c-3.6,0.9-11,1.6-17.3,1.6H217.5c-6.2,0-13.6-0.7-17.3-1.6c-3.6-0.9-4.2-1.6-4.2-2.2v-2.3c0,0.6,0.5,1.3,4.2,2.2
		c3.6,0.9,11,1.6,17.3,1.6h163.6c6.2,0,13.6-0.7,17.3-1.6c3.6-0.9,4.2-1.6,4.2-2.2V516.2z"/>
</g>
<path class="st2" d="M600,415.2c0,9.2-7.5,16.7-16.7,16.7H16.7c-9.2,0-16.7-7.5-16.7-16.7V16.7C0,7.5,7.5,0,16.7,0h566.6
	c9.2,0,16.7,7.5,16.7,16.7V415.2z"/>
<g>
	<path d="M600,16.7C600,7.5,592.5,0,583.3,0H16.7C7.5,0,0,7.5,0,16.7v346.5h600V16.7z"/>
	
		<linearGradient id="SVGID_00000116211851101548862690000017178365933963687327_" gradientUnits="userSpaceOnUse" x1="0" y1="397.5742" x2="600" y2="397.5742">
		<stop  offset="0" style="stop-color:#C9C9C9"/>
		<stop  offset="0.9888" style="stop-color:#EAEAEA"/>
	</linearGradient>
	<path style="fill:url(#SVGID_00000116211851101548862690000017178365933963687327_);" d="M0,363.2v52c0,9.2,7.5,16.7,16.7,16.7
		h566.6c9.2,0,16.7-7.5,16.7-16.7v-52H0z"/>
</g>
<rect x="28" y="29.6" class="st4" width="543.2" height="307.1"/>
<g>
	
		<linearGradient id="SVGID_00000075148684975357748780000016041345054516027831_" gradientUnits="userSpaceOnUse" x1="474.0737" y1="441.9304" x2="474.0737" y2="-10.2842">
		<stop  offset="0" style="stop-color:#E1E2E2;stop-opacity:0"/>
		<stop  offset="0.3787" style="stop-color:#E5E5E5;stop-opacity:0.1136"/>
		<stop  offset="0.7159" style="stop-color:#EFF0F0;stop-opacity:0.2148"/>
		<stop  offset="1" style="stop-color:#FFFFFF;stop-opacity:0.3"/>
	</linearGradient>
	<path style="fill:url(#SVGID_00000075148684975357748780000016041345054516027831_);" d="M600,16.8C600,7.6,592.6,0,583.4,0H348.1
		l147.4,363H600V16.8z"/>
</g>
<g class="st6">
	<path class="st7" d="M293.8,385.8c1,0,2.2,0.2,3.6,0.6c1.4,0.4,2.4,0.6,2.8,0.6c0.6,0,1.6-0.2,2.9-0.7c1.4-0.5,2.5-0.7,3.5-0.7
		c1.6,0,3.1,0.4,4.4,1.3c0.7,0.5,1.4,1.2,2.1,2c-1.1,0.9-1.8,1.7-2.3,2.4c-0.9,1.3-1.3,2.7-1.3,4.2c0,1.7,0.5,3.2,1.4,4.6
		c0.9,1.4,2,2.2,3.2,2.6c-0.5,1.6-1.3,3.3-2.5,5.1c-1.8,2.7-3.5,4-5.3,4c-0.7,0-1.6-0.2-2.9-0.7c-1.2-0.4-2.2-0.7-3.1-0.7
		s-1.8,0.2-2.9,0.7c-1.1,0.5-2,0.7-2.7,0.7c-2.1,0-4.1-1.8-6.1-5.3c-2-3.5-3-6.9-3-10.3c0-3.1,0.8-5.7,2.3-7.6
		C289.5,386.7,291.5,385.8,293.8,385.8 M306.4,377.9c0.1,0.2,0.1,0.3,0.1,0.5c0,0.1,0,0.3,0,0.4c0,0.8-0.2,1.8-0.6,2.8
		c-0.4,1-1,1.9-1.9,2.8c-0.7,0.7-1.5,1.2-2.2,1.5c-0.5,0.1-1.2,0.3-2.1,0.3c0-2,0.6-3.8,1.6-5.2C302.3,379.5,304,378.5,306.4,377.9"
		/>
</g>
<g>
	
		<radialGradient id="SVGID_00000037658331194015096410000004437315411370739116_" cx="240.5911" cy="-210.6881" r="14.5194" gradientTransform="matrix(0.3098 0 0 0.3098 225.8559 71.6245)" gradientUnits="userSpaceOnUse">
		<stop  offset="0.5644" style="stop-color:#212121"/>
		<stop  offset="0.7546" style="stop-color:#353535"/>
	</radialGradient>
	<path style="fill:url(#SVGID_00000037658331194015096410000004437315411370739116_);" d="M297.6,8.6c0-1.5,1.2-2.7,2.7-2.7
		c1.5,0,2.7,1.2,2.7,2.7c0,1.5-1.2,2.7-2.7,2.7C298.9,11.4,297.6,10.1,297.6,8.6z"/>
	
		<radialGradient id="SVGID_00000075145541705573254910000006878114809002546053_" cx="267.9985" cy="-148.972" r="2.0276" gradientTransform="matrix(0.7005 0 0 0.7005 112.7402 112.8249)" gradientUnits="userSpaceOnUse">
		<stop  offset="0" style="stop-color:#1A1A1A"/>
		<stop  offset="0.7485" style="stop-color:#282828"/>
		<stop  offset="1" style="stop-color:#000000"/>
	</radialGradient>
	<path style="fill:url(#SVGID_00000075145541705573254910000006878114809002546053_);" d="M300.4,7.3c0.7,0,1.3,0.6,1.3,1.3
		c0,0.7-0.6,1.3-1.3,1.3c-0.7,0-1.3-0.6-1.3-1.3C299.1,7.9,299.7,7.3,300.4,7.3z"/>
	<path class="st10" d="M300.5,8.9c-0.3,0-0.6-0.3-0.6-0.6c0-0.3,0.3-0.6,0.6-0.6c0.3,0,0.6,0.3,0.6,0.6
		C301.2,8.7,300.9,8.9,300.5,8.9z"/>
	<path class="st4" d="M300.4,8.3c-0.2,0-0.3-0.1-0.3-0.3c0-0.2,0.1-0.3,0.3-0.3c0.2,0,0.3,0.1,0.3,0.3
		C300.7,8.1,300.5,8.3,300.4,8.3z"/>
	<path class="st11" d="M300.8,9.4c-0.2,0-0.3-0.1-0.3-0.3c0-0.2,0.1-0.3,0.3-0.3c0.2,0,0.3,0.1,0.3,0.3C301.1,9.2,301,9.4,300.8,9.4
		z"/>
</g>
<g id="configcat-logo-black">
	<path class="st12" d="M312.7,387.9v-9.7l-9.7,9.7h-8.1l-6.5-6.5v21c0,5.4,4.4,9.7,9.7,9.7h14.6L312.7,387.9L312.7,387.9z"/>
	<path class="st13" d="M295.5,391.2h10c2.3,0,4.2,1.9,4.2,4.2l0,0c0,2.3-1.9,4.2-4.2,4.2h-10c-2.3,0-4.2-1.9-4.2-4.2l0,0
		C291.3,393.1,293.2,391.2,295.5,391.2z"/>
	<circle cx="305.2" cy="395.4" r="3.2"/>
	<path class="st12" d="M295.8,392.9c1.4,0,2.6,1.2,2.6,2.6s-1.2,2.6-2.6,2.6c-1.4,0-2.6-1.2-2.6-2.6S294.4,392.9,295.8,392.9
		 M295.8,392.2c-1.8,0-3.2,1.5-3.2,3.2s1.5,3.2,3.2,3.2c1.8,0,3.2-1.5,3.2-3.2S297.6,392.2,295.8,392.2z"/>
	<path class="st13" d="M302,402.1c-0.1-0.1-0.3-0.1-0.5,0l0,0l-1,1l-1-1c-0.1-0.1-0.3-0.1-0.5,0s-0.1,0.3,0,0.5l1.1,1.1v2.2
		c0,0.2,0.1,0.3,0.3,0.3s0.3-0.1,0.3-0.3v-2.2l1.1-1.1C302.1,402.4,302.1,402.2,302,402.1L302,402.1z"/>
	<path class="st13" d="M287.3,403.3h6.6c0.1,0,0.2-0.1,0.2-0.2c0-0.1-0.1-0.2-0.2-0.2h-6.6c-0.1,0-0.2,0.1-0.2,0.2
		C287,403.2,287.2,403.3,287.3,403.3z"/>
	<path class="st13" d="M295.1,404h-9c-0.1,0-0.2,0.1-0.2,0.2s0.1,0.2,0.2,0.2h9c0.1,0,0.2-0.1,0.2-0.2S295.2,404,295.1,404z"/>
	<path class="st13" d="M293.9,405.1h-6.6c-0.1,0-0.2,0.1-0.2,0.2s0.1,0.2,0.2,0.2h6.6c0.1,0,0.2-0.1,0.2-0.2S294,405.1,293.9,405.1z
		"/>
	<path class="st13" d="M307.3,403.1h6.6c0.1,0,0.2-0.1,0.2-0.2c0-0.1-0.1-0.2-0.2-0.2h-6.6c-0.1,0-0.2,0.1-0.2,0.2
		C307.1,402.9,307.2,403.1,307.3,403.1z"/>
	<path class="st13" d="M315.1,403.7h-9c-0.1,0-0.2,0.1-0.2,0.2s0.1,0.2,0.2,0.2h9c0.1,0,0.2-0.1,0.2-0.2S315.2,403.7,315.1,403.7
		L315.1,403.7z"/>
	<path class="st13" d="M313.9,404.9h-6.6c-0.1,0-0.2,0.1-0.2,0.2c0,0.1,0.1,0.2,0.2,0.2h6.6c0.1,0,0.2-0.1,0.2-0.2
		C314.1,405,314,404.9,313.9,404.9z"/>
	<path class="st12" d="M324.6,394.3L324.6,394.3c-0.6-1.7-2.5-2.6-4.2-1.9c-1.7,0.6-2.6,2.5-1.9,4.2c0,0,0,0.1,0.1,0.2
		c2,5.5-0.9,11.6-6.5,13.6c-2,0.7-4.3,0.8-6.4,0.2c6.4,3.5,14.5,1.2,18-5.2C325.6,401.9,325.9,397.9,324.6,394.3z"/>
</g>
</svg>
